# xmcd
#
# Track frame offsets: 
#        150
#        22308
#        45820
#        65930
#        89865
#        110758
#        129703
#        150238
#
# Disc length: 2255 seconds
#
# Revision: 0
# Processed by: cddbd v1.5.2PL0 Copyright (c) Steve Scherf et al.
# Submitted via: ExactAudioCopyFreeDBPlugin 1.0
#
DISCID=7008cd08
DTITLE=長山洋子 - キラリ、女節
DYEAR=2004
DGENRE=Country
TTITLE0=じょんから女節
TTITLE1=酔歌
TTITLE2=望郷ひとり泣き
TTITLE3=海に降る雪
TTITLE4=おんな炭坑節
TTITLE5=下北のバス
TTITLE6=ソーラン渡り鳥
TTITLE7=女の花詞
EXTD=
EXTT0=
EXTT1=
EXTT2=
EXTT3=
EXTT4=
EXTT5=
EXTT6=
EXTT7=
PLAYORDER=
